<?xml version="1.0" encoding="UTF-8"?>
<svg width="340px" height="125px" viewBox="0 0 340 125" version="1.1" xmlns="http://www.w3.org/2000/svg" xmlns:xlink="http://www.w3.org/1999/xlink">
    <!-- Generator: Sketch 60 (88103) - https://sketch.com -->
    <title>Logo</title>
    <desc>Created with Sketch.</desc>
    <g id="Page-1" stroke="none" stroke-width="1" fill="none" fill-rule="evenodd">
        <g id="1" transform="translate(-390.000000, -205.000000)" fill="#265998">
            <path d="M429.880628,297.134139 L451.843614,268.950018 C451.262569,268.047991 451.285405,266.843599 452.000081,265.966065 C452.889832,264.874849 454.497643,264.710153 455.591225,265.598666 C456.683962,266.488025 456.848887,268.092754 455.959136,269.184815 C455.243614,270.061504 454.067146,270.328396 453.064907,269.942416 L429.880628,297.134139 Z M503.15824,230.760829 L503.159932,230.759139 C503.151474,230.747315 503.141325,230.735491 503.132867,230.723666 C502.101026,229.233802 500.809534,227.719444 500.809534,227.719444 L500.806151,227.725356 C498.579235,225.015896 496.128191,222.4762 493.442867,220.162011 C487.149484,214.738869 479.663564,210.485491 471.222768,207.854579 C438.239385,197.573329 403.15426,215.939883 392.858688,248.877383 C385.197693,273.384984 393.42028,299.054748 411.717693,314.824173 C418.011076,320.247315 425.496997,324.500694 433.938638,327.131606 C447.358489,331.314883 461.11834,330.733802 473.422619,326.378227 C474.097544,326.098666 475.467693,325.496471 477.072121,324.609646 L477.072121,324.610491 C477.093265,324.599511 477.111872,324.587687 477.111872,324.587687 C477.187992,324.546302 477.242121,324.515896 477.297096,324.485491 C478.944658,323.597822 480.298738,322.657788 481.399086,321.743937 C483.088091,320.385829 484.619783,318.766741 485.545056,316.919612 C485.679534,316.668768 485.742121,316.521808 485.742121,316.521808 L485.753962,316.494781 C485.785255,316.423835 485.810628,316.352045 485.84023,316.280254 C487.995255,311.372315 485.47232,307.6012 481.840579,304.884139 C481.736549,304.789545 481.649434,304.696639 481.542022,304.602045 C481.456599,304.547146 481.407544,304.514207 481.407544,304.514207 L481.409235,304.523498 C481.213862,304.395964 481.009186,304.27941 480.810429,304.155254 C475.99038,300.960153 469.937196,299.44495 469.937196,299.44495 L469.940579,299.453396 C463.679335,297.657788 456.960529,296.925525 450.788091,296.756606 C442.151922,296.521808 434.59242,297.374849 430.888788,297.918768 C430.926847,297.884984 430.964061,297.854579 431.002121,297.821639 C431.029186,297.800525 431.061325,297.776876 431.085007,297.758295 C431.783614,297.1637 433.047196,296.104579 434.737892,294.773498 C439.733017,290.879072 448.133216,284.9137 456.996051,280.933971 C457.703116,280.616403 458.415255,280.325862 459.126549,280.037011 C459.516449,279.879916 459.898738,279.7262 460.259882,279.587687 C461.034609,279.291234 461.810181,279.002383 462.584061,278.744781 C463.073763,278.581775 463.56431,278.415389 464.053166,278.270119 C464.053166,278.270119 464.11829,278.249849 464.148738,278.240558 C464.889633,278.022653 465.629683,277.824173 466.365504,277.651031 L466.370579,277.649342 L466.376499,277.636673 C466.502519,277.367248 476.534211,255.911166 483.023813,249.172146 C483.051723,249.144275 483.080479,249.110491 483.107544,249.082619 C475.989534,239.830085 466.236947,235.366403 466.236947,235.366403 C465.452071,236.580085 464.350031,237.911166 462.996798,239.360491 C455.74431,247.058126 441.627544,257.532788 441.627544,257.532788 C441.627544,257.532788 441.652071,263.761673 438.614907,273.914545 C435.349385,284.394275 430.433763,293.586842 429.034857,296.127383 C429.006947,296.189883 428.970579,296.270964 428.930827,296.360491 C428.051225,296.210998 427.120877,296.514207 426.517842,297.254072 C425.754957,298.189883 425.771872,299.499004 426.477245,300.416234 C426.595653,300.56995 426.728439,300.715221 426.884907,300.843599 L426.886599,300.844444 C427.602967,301.414545 428.432668,301.56066 429.185405,301.319106 C429.665803,301.18566 430.110678,300.912856 430.454061,300.504072 C431.518887,300.36218 432.560877,300.247315 433.589335,300.148498 C438.889783,299.637518 443.703912,299.677214 448.05033,300.115558 C458.863514,301.206775 466.776549,304.759984 472.033862,308.433126 C478.126798,313.434815 471.698091,317.058126 470.340628,317.738025 C459.831076,321.457619 448.098539,321.988869 436.66033,318.423835 C429.60829,316.225356 423.22441,312.690727 417.6863,307.917923 C401.553216,294.013362 395.23023,271.906099 401.579434,251.595288 C410.324708,223.616403 440.155056,207.920457 468.187295,216.473666 C468.291325,216.505761 468.396201,216.530254 468.50023,216.562349 C469.037295,216.729579 469.559982,216.92468 470.088589,217.108802 C470.752519,217.374004 471.524708,217.734646 472.207245,218.180592 C472.265604,218.219444 472.327345,218.256606 472.384857,218.297991 C472.407693,218.314038 472.430529,218.331775 472.430529,218.331775 C473.047942,218.781099 473.545255,219.290389 473.820977,219.876538 C473.838738,219.914545 473.854808,219.952552 473.870877,219.990558 C473.881872,220.016741 473.886947,220.045457 473.897096,220.071639 C473.964758,220.254916 474.011275,220.430592 474.040031,220.597822 C474.051872,220.670457 474.055255,220.734646 474.061176,220.803058 C474.067942,220.879072 474.073017,220.956775 474.073017,221.048835 C474.073017,221.153565 474.067096,221.267585 474.053564,221.388362 L474.042569,221.46691 C474.029882,221.561504 474.007892,221.660322 473.983365,221.759984 C473.963912,221.835998 473.93431,221.914545 473.907245,221.992248 L473.776151,222.25745 L473.832818,222.160322 C473.738937,222.381606 473.617146,222.603734 473.431922,222.813194 C473.398937,222.847822 473.371872,222.883295 473.334658,222.917079 C473.328738,222.922146 473.321972,222.927214 473.321972,222.927214 C473.032718,223.178058 472.626748,223.375694 472.055852,223.399342 C471.991574,223.397653 471.929832,223.396808 471.854559,223.392585 C471.854559,223.392585 471.477345,223.352889 471.043464,223.357957 C470.985952,223.357112 470.936051,223.356268 470.936051,223.356268 L470.914907,223.36218 C470.860778,223.363869 470.80834,223.363025 470.753365,223.367248 C469.790031,223.466065 468.386051,223.93566 467.721275,225.745626 C467.360131,226.892585 467.614708,228.171302 468.436798,229.096977 C468.518837,229.189038 468.608489,229.275187 468.700678,229.359646 C468.748887,229.403565 468.786101,229.454241 468.837693,229.495626 L468.855454,229.50745 C468.912967,229.551369 468.975554,229.584308 469.034758,229.625694 L469.021225,229.634984 L469.257196,229.772653 C469.337544,229.81995 469.416201,229.871471 469.499086,229.912856 L471.649882,231.1637 C471.713315,231.202552 471.772519,231.239714 471.836798,231.27941 C473.237395,232.155254 476.088489,233.980423 478.361076,235.710998 L479.65426,236.740558 C479.65426,236.740558 482.114609,238.906099 484.508141,241.165389 L487.815952,244.823329 C487.815952,244.823329 487.865007,244.876538 487.887842,244.903565 L488.10436,245.142585 L488.111126,245.124849 C488.185554,245.197484 488.248987,245.277721 488.331872,245.344444 C489.823813,246.558126 492.017743,246.333464 493.23227,244.843599 C493.578191,244.418768 493.794708,243.93566 493.910579,243.43566 C493.951176,243.291234 493.980778,243.136673 493.998539,242.971977 C493.998539,242.971977 493.999385,242.948329 494.00023,242.937349 C494.017992,242.756606 494.017146,242.564038 493.996847,242.361335 L493.989235,242.25745 C493.976549,242.160322 493.952022,242.057281 493.92834,241.954241 L493.921574,241.931437 C493.894509,241.777721 493.855604,241.625694 493.80824,241.477045 L493.809932,241.479579 C493.413265,240.423835 493.996002,239.684815 494.377444,239.334308 L503.792569,231.743092 C503.606499,231.428903 503.389136,231.096133 503.15824,230.760829 Z M515.664658,252.463531 C516.929932,252.884984 517.844211,254.39343 519.0063,256.501538 L523.227544,264.125694 L521.116499,264.125694 L516.895255,256.46691 C515.734012,254.359646 514.643813,253.377383 513.940977,253.377383 L510.247494,253.377383 L510.247494,264.037856 L508.383415,264.037856 L508.383415,240.889207 L510.247494,240.889207 L510.247494,251.550525 L513.940977,251.550525 C514.643813,251.550525 515.734012,250.568261 516.895255,248.460153 L521.116499,240.802214 L523.227544,240.802214 L519.0063,248.425525 C517.844211,250.533633 516.929932,252.042923 515.664658,252.463531 Z M729.365653,240.9762 L729.365653,264.125694 L727.501574,264.125694 L727.501574,248.460153 C727.501574,247.194106 727.501574,245.541234 727.573464,244.172991 L727.501574,244.172991 C726.939982,245.2262 726.271822,246.314883 725.812569,247.053903 L719.552171,257.100356 L718.461972,257.100356 L711.74232,246.9137 C711.249235,246.17468 710.547245,245.120626 710.125206,244.244781 L710.053315,244.244781 C710.125206,245.438194 710.125206,247.227889 710.125206,248.460153 L710.125206,264.125694 L708.261126,264.125694 L708.261126,240.9762 L710.053315,240.9762 L716.701076,251.129072 C717.756599,252.744781 718.35625,253.657788 718.952519,254.640052 L719.02441,254.640052 C719.620678,253.657788 720.292221,252.56995 721.275852,251.023498 L727.573464,240.9762 L729.365653,240.9762 Z M702.17834,240.9762 L704.183663,240.9762 L696.164907,259.030254 C694.509733,262.790389 692.717544,264.337687 690.181922,264.337687 C689.832619,264.337687 689.373365,264.29968 689.057892,264.231268 L689.057892,262.4762 C689.445255,262.544612 689.726051,262.578396 690.113415,262.578396 C692.330181,262.578396 693.42038,260.857957 694.828589,257.662011 L686.807295,240.9762 L688.917494,240.9762 L695.74033,255.4137 L695.812221,255.4137 L702.17834,240.9762 Z M680.7964,240.9762 L682.485405,240.9762 L682.485405,264.125694 L680.621325,264.125694 L680.621325,248.073329 C680.621325,246.033633 680.656002,245.192416 680.689832,243.926369 L680.621325,243.926369 C679.809385,245.120626 678.685355,246.738869 677.102071,248.808971 L665.493017,264.125694 L664.088191,264.125694 L664.088191,240.9762 L665.95227,240.9762 L665.95227,256.74816 C665.95227,258.787011 665.917594,259.629072 665.88038,260.895119 L665.95227,260.895119 C666.760827,259.6637 667.956748,257.942416 669.645753,255.731268 L680.7964,240.9762 Z M659.762917,267.273498 L657.898837,267.273498 L657.898837,264.125694 L641.225305,264.125694 L641.225305,240.9762 L643.089385,240.9762 L643.089385,262.509984 L655.401275,262.509984 L655.401275,240.9762 L657.265355,240.9762 L657.265355,262.509984 L659.762917,262.509984 L659.762917,267.273498 Z M631.904907,252.95593 C631.061673,253.412011 629.899584,253.7262 628.245255,253.7262 L626.312668,253.7262 L626.312668,242.59191 L628.317146,242.59191 C630.040827,242.59191 631.202071,242.909477 632.079136,243.436504 C633.593912,244.346977 634.437146,246.033633 634.437146,248.176369 C634.437146,250.42468 633.593912,252.076707 631.904907,252.95593 Z M633.206549,242.064883 C632.045305,241.363025 630.568589,240.9762 628.245255,240.9762 L624.448589,240.9762 L624.448589,264.125694 L626.312668,264.125694 L626.312668,255.344444 L628.070181,255.344444 C630.181225,255.344444 631.623265,254.992248 632.748141,254.431437 C635.211026,253.199173 636.373116,250.88245 636.373116,248.176369 C636.373116,245.367248 635.177196,243.259139 633.206549,242.064883 Z M607.989882,262.790389 C602.431474,262.790389 598.844559,258.609646 598.844559,252.672991 C598.844559,246.738869 602.431474,242.485491 607.989882,242.485491 C613.931424,242.485491 617.135206,247.122315 617.135206,252.672991 C617.135206,258.609646 613.547444,262.790389 607.989882,262.790389 Z M607.989882,240.802214 C601.622917,240.802214 596.873912,245.647653 596.873912,252.672991 C596.873912,259.909477 601.69227,264.477889 607.989882,264.477889 C614.144559,264.477889 619.105852,259.981268 619.105852,252.672991 C619.105852,245.787856 614.459186,240.802214 607.989882,240.802214 Z M593.220181,261.422146 L593.747942,262.965221 C591.740927,264.019275 589.667096,264.477889 587.662619,264.477889 C581.011474,264.477889 576.895952,259.629072 576.895952,252.850356 C576.895952,246.068261 581.470728,240.802214 588.083813,240.802214 C590.51033,240.802214 592.621375,241.431437 593.642221,242.064883 L593.642221,243.891741 C592.127444,243.084308 590.475653,242.485491 588.083813,242.485491 C582.666648,242.485491 578.866599,246.982112 578.866599,252.672991 C578.866599,258.646808 582.279285,262.790389 587.803017,262.790389 C589.842171,262.790389 591.671574,262.229579 593.220181,261.422146 Z M569.337295,240.9762 L571.201375,240.9762 L571.201375,264.125694 L569.337295,264.125694 L569.337295,253.058971 L555.935206,253.058971 L555.935206,264.125694 L554.071126,264.125694 L554.071126,240.9762 L555.935206,240.9762 L555.935206,251.444106 L569.337295,251.444106 L569.337295,240.9762 Z M537.61242,262.790389 C532.054857,262.790389 528.467096,258.609646 528.467096,252.672991 C528.467096,246.738869 532.054857,242.485491 537.61242,242.485491 C543.558191,242.485491 546.758589,247.122315 546.758589,252.672991 C546.758589,258.609646 543.170827,262.790389 537.61242,262.790389 Z M537.61242,240.802214 C531.2463,240.802214 526.496449,245.647653 526.496449,252.672991 C526.496449,259.909477 531.314808,264.477889 537.61242,264.477889 C543.767096,264.477889 548.72839,259.981268 548.72839,252.672991 C548.72839,245.787856 544.082569,240.802214 537.61242,240.802214 Z M680.244957,292.975356 C681.979633,294.064883 683.415753,296.235491 685.145355,299.401876 L693.560778,314.955085 L686.754012,314.955085 L679.301076,300.814038 C676.841574,296.285322 675.298041,295.795457 674.747444,295.795457 L668.847345,295.795457 L668.847345,314.955085 L662.858439,314.955085 L662.897345,271.316572 L668.88625,271.316572 L668.847345,290.156099 L674.747444,290.156099 C675.298041,290.156099 676.841574,289.666234 679.304459,285.131606 L686.603464,271.316572 L693.409385,271.316572 L685.145355,286.547991 C683.415753,289.716065 681.980479,291.888362 680.244957,292.975356 Z M525.769932,292.975356 C527.504609,294.064883 528.940728,296.235491 530.67033,299.401876 L539.108589,314.952552 L532.302668,314.952552 L524.826051,300.814038 C522.36824,296.285322 520.823017,295.795457 520.27242,295.795457 L514.37232,295.795457 L514.37232,314.955085 L508.383415,314.955085 L508.383415,271.316572 L514.37232,271.316572 L514.37232,290.156099 L520.27242,290.156099 C520.823017,290.156099 522.36824,289.666234 524.829434,285.131606 L532.111524,271.316572 L538.91829,271.316572 L530.67033,286.547991 C528.940728,289.716065 527.505454,291.888362 525.769932,292.975356 Z M729.972917,312.324173 L729.514509,312.566572 C725.729683,314.578396 721.642917,315.597822 717.36839,315.597822 C704.703813,315.597822 696.520131,306.996471 696.520131,293.683971 C696.520131,280.537856 705.640927,270.997315 718.206549,270.997315 C723.185604,270.997315 727.055852,272.202552 729.017196,273.33093 L729.323365,273.50745 L729.323365,279.387518 L728.423464,278.899342 C725.152022,277.125694 722.021822,276.333464 718.271673,276.333464 C709.287046,276.333464 702.766151,283.495626 702.766151,293.36218 C702.766151,303.627383 708.674708,310.261673 717.820877,310.261673 C721.195504,310.261673 724.41028,309.421302 727.652967,307.693261 L728.286449,307.355423 L729.972917,312.324173 Z M638.876599,309.681437 L654.991922,309.681437 L654.991922,314.955085 L632.887693,314.955085 L632.887693,271.318261 L654.879434,271.318261 L652.868191,276.59191 L638.876599,276.59191 L638.876599,290.050525 L652.863962,290.050525 L652.863962,295.322484 L638.876599,295.322484 L638.876599,309.681437 Z M614.314559,276.527721 L614.314559,309.681437 L595.589186,309.681437 C598.393763,305.207619 604.017295,294.406944 606.623116,276.527721 L614.314559,276.527721 Z M620.303464,271.318261 L601.765852,271.318261 L601.688887,271.837687 C599.299584,288.015052 594.575106,301.780254 588.708837,309.681437 L585.889882,309.681437 L585.889882,321.128227 L591.814509,321.128227 L591.814509,314.955085 L619.27839,314.955085 L619.27839,321.128227 L625.203017,321.128227 L625.203017,309.681437 L620.303464,309.681437 L620.303464,271.318261 Z M578.143464,293.369781 C578.143464,303.634984 572.234061,310.269275 563.088738,310.269275 C553.94426,310.269275 548.035703,303.634984 548.035703,293.369781 C548.035703,283.184815 554.084658,276.341065 563.088738,276.341065 C572.234061,276.341065 578.143464,283.025187 578.143464,293.369781 Z M563.088738,271.004916 C550.747245,271.004916 541.789683,280.410322 541.789683,293.369781 C541.789683,306.461842 550.548489,315.606268 563.088738,315.606268 C575.630678,315.606268 584.389484,306.461842 584.389484,293.369781 C584.389484,280.410322 575.43023,271.004916 563.088738,271.004916 L563.088738,271.004916 Z" id="Logo"></path>
        </g>
    </g>
</svg>